<svg width="197" height="193" viewBox="0 0 197 193" fill="none" xmlns="http://www.w3.org/2000/svg">
<path d="M98.5182 14.3164C143.536 11.8976 181.994 46.4242 184.425 91.4415C186.856 136.459 152.34 174.926 107.323 177.369C62.2896 179.814 23.804 145.281 21.3721 100.247C18.9402 55.2123 53.4831 16.7362 98.5182 14.3164Z" fill="#DFE0E3"/>
<path d="M99.7007 17.5313C142.943 15.7725 179.434 49.3814 181.23 92.6225C183.026 135.863 149.449 172.383 106.21 174.217C62.9172 176.053 26.343 142.426 24.5444 99.1315C22.7459 55.8373 56.405 19.2923 99.7007 17.5313Z" fill="#FEFEFE"/>
<path d="M100.601 21.024C141.967 19.7657 176.516 52.2919 177.752 93.6593C178.989 135.026 146.444 169.558 105.076 170.773C63.7392 171.986 29.2391 139.472 28.0037 98.135C26.7682 56.7983 59.2648 22.2811 100.601 21.024Z" fill="#5B6F51"/>
<path d="M105.93 61.6955C110.008 61.2739 110.033 62.1311 113.409 62.6899C113.711 62.4896 113.917 62.336 114.2 62.1081C117.391 62.391 119.955 64.3199 121.028 67.3103C121.587 68.8678 121.782 71.2969 123.454 71.9996C123.85 72.166 124.793 71.7513 125.224 71.5875C126.74 73.0464 129.034 77.9984 127.048 79.5173C124.995 79.7341 125.528 78.4581 124.056 78.0757C122.606 78.2127 121.9 80.1029 121.033 81.0136C120.369 81.711 119.452 81.332 119.588 82.6353C120.156 83.1779 120.688 82.9218 120.962 83.0663C122.629 83.948 126.356 80.8559 127.166 81.8936C127.582 85.2881 125.737 90.357 123.128 92.4977C120.04 95.032 114.131 96.7422 110.272 97.3223C107.928 97.668 105.413 97.2528 103.049 97.2867C101.588 97.3076 98.194 97.9317 96.9584 97.6124C95.6946 97.5259 91.0568 95.1991 90.2545 95.2466C86.6023 95.4634 84.9091 94.4119 82.5141 91.4779C80.5896 89.1202 79.0407 84.3647 78.2485 81.361C78.0253 80.5144 78.2091 78.7334 78.2939 77.8173C78.5016 75.6911 79.7527 73.7562 80.919 71.9607C81.59 70.9277 82.6564 68.5974 83.3775 67.861C85.5966 65.5944 89.2499 64.9149 92.1649 64.1005C92.2336 64.0813 92.3756 63.2827 92.6434 63.1593C96.0869 61.5708 100.386 62.4839 103.636 63.0462C104.467 62.1703 104.764 61.9933 105.93 61.6955Z" fill="#FEFEFE"/>
<path d="M105.125 96.3492C105.97 95.9327 106.978 95.646 107.144 94.6622L106.898 94.3282C105.165 94.9775 103.401 95.6573 101.638 96.2071C97.2094 97.5888 92.6117 94.8595 88.8413 92.8396C88.8413 92.8396 88.4656 92.8818 88.4302 92.8858C88.1701 93.3125 88.1341 93.3899 87.7798 93.7332C84.7198 93.8602 81.7393 88.6665 81.1314 86.0435C80.876 84.9413 81.0623 82.4302 80.6676 81.6339C80.2032 81.5319 79.9957 81.5253 79.6227 81.2366C78.4202 76.507 81.3418 73.5635 84.19 70.4401C83.4932 67.7436 87.36 66.7812 89.3756 66.0267C90.5905 65.5719 92.895 65.8039 94.2302 65.3341C94.7971 65.1345 94.3267 64.1333 94.8989 63.5618C99.0231 62.8145 101.431 64.2758 105.257 64.5308C105.91 64.1636 105.551 63.2454 105.845 63.1517C108.628 62.2644 111.677 63.4672 114.328 64.4571C114.66 64.5807 114.827 63.7714 115.64 63.6033C116.655 63.8826 117.303 64.2549 118.079 64.9897C118.668 65.5527 119.166 66.2031 119.555 66.9182C120.404 68.496 121.792 72.9727 122.538 74.8427C122.639 75.0962 122.683 76.5882 122.691 76.955C121.519 78.1286 120.998 78.4439 119.761 79.8492C119.452 79.4774 119.862 76.6069 117.78 75.5014C117.212 75.565 117.41 75.4656 117.028 75.8588C117.131 77.1693 118.942 77.4987 118.289 81.2063C116.302 83.3249 109.477 76.2267 107.738 78.2864C108.374 79.7284 111.5 79.9033 112.511 80.9073L112.334 81.1005C111.337 81.3774 110.872 81.174 109.898 80.8945C109.256 81.2662 109.078 81.8173 108.726 81.9656C108.502 82.0359 108.346 82.1392 108.139 82.2531C107.926 82.8509 107.929 82.6068 108.091 83.1807C108.469 83.3538 111.466 82.7893 112.12 82.7071C113.837 82.4917 115.376 82.5226 117.093 82.5608C116.38 82.7591 114.381 83.3984 114.048 83.9627C114.822 84.5425 122.334 84.1998 123.759 84.2447C124.454 84.2667 124.99 83.6504 125.589 83.3849C126.74 85.2138 123.838 90.2211 122.393 91.5832C120.28 93.5731 118.86 92.6475 118.802 92.6884C114.192 95.9472 110.584 96.454 105.125 96.3492Z" fill="#5B6F51"/>
<path d="M104.74 80.9673C105.887 78.7851 106.799 76.0612 104.64 74.1535C102.933 72.6445 104.059 72.2116 104.03 71.0583C103.375 70.5144 102.495 70.7809 101.751 70.4322C100.957 70.0599 101.659 69.4896 101.299 68.6541C100.194 68.2756 98.5857 69.48 97.9596 68.519C98.5555 66.6555 102.639 67.2658 103.334 68.1085L103.104 68.8733C103.53 69.7246 105.177 69.9936 105.998 71.419C105.971 72.107 105.74 71.9424 105.291 72.7043C107.237 75.8307 107.894 77.1478 106.168 80.667C106.054 81.0609 105.864 81.6358 105.825 82.0265C105.772 82.0659 105.72 82.1055 105.667 82.1451C103.254 82.663 93.2394 89.7667 91.5235 87.295C92.0584 86.4222 94.6972 86.3274 95.7979 85.7847C98.773 84.3184 101.836 82.5646 104.74 80.9673Z" fill="#FEFEFE"/>
<path d="M106.168 80.667C107.925 80.4013 108.265 80.0102 109.898 80.8945C109.256 81.2662 109.078 81.8173 108.726 81.9656C108.011 81.4443 106.65 81.8505 105.825 82.0265C105.864 81.6358 106.053 81.0609 106.168 80.667Z" fill="#DFE0E3"/>
<path d="M109.649 68.7414C111.97 67.7609 113.525 67.3947 115.914 68.5831C116.726 68.987 116.859 68.9542 117.316 69.8247L117.255 70.2081C116.338 70.4054 114.854 69.2557 113.781 69.1242C112.766 68.9996 112.038 69.1091 111.036 69.2563C110.985 70.2383 110.71 73.0285 110.859 73.7711C111.742 73.5336 116.401 68.6731 117.005 71.1723C116.696 72.4711 114.616 75.5094 113.044 75.1066C112.915 74.7072 112.902 74.6916 113.025 74.3052L112.723 73.8611C112.077 74.6392 111.424 75.3791 110.378 75.564C108.673 75.015 109.745 70.5949 109.649 68.7414Z" fill="#FEFEFE"/>
<path d="M112.723 73.8611C113.238 73.3643 113.834 72.6739 114.501 72.5109L114.591 72.7045C114.211 73.3602 113.604 73.8125 113.025 74.3052L112.723 73.8611Z" fill="#9CA296"/>
<path d="M114.248 87.8864C115.467 87.8425 118.057 88.1015 118.825 89.1025C118.245 89.5901 114.069 89.2847 112.709 89.3582C111.148 89.6809 110.581 90.3837 108.941 90.0982L108.897 89.8507C110.146 88.6598 112.573 88.1805 114.248 87.8864Z" fill="#DFE0E3"/>
<path d="M114.677 77.7196C116.355 78.0547 117.094 79.2804 117.883 80.6629C117.141 80.7307 116.094 80.1804 115.368 79.8711L114.677 77.7196Z" fill="#FEFEFE"/>
<path d="M87.6868 75.195C88.0199 75.1181 88.2538 75.192 88.5908 75.2523L88.7089 75.5207C88.3989 76.1602 87.6753 76.6319 87.0994 77.0798C86.6751 77.216 86.6521 77.2013 86.202 77.1259L86.0109 76.7848C86.2192 75.7312 86.7754 75.5442 87.6868 75.195Z" fill="#FEFEFE"/>
<path d="M92.0987 72.2382C92.924 72.3725 92.8479 72.237 93.4092 72.7077L93.3762 73.0656C92.7227 73.6327 92.8158 73.4683 91.8326 73.6282C91.2871 73.7337 90.9443 73.7496 90.5666 73.3519L90.6925 72.9099C91.3369 72.2981 91.1554 72.4758 92.0987 72.2382Z" fill="#FEFEFE"/>
<path d="M96.3162 71.9366C97.1158 71.9353 97.8244 72.127 98.457 72.6123C98.8296 73.2838 98.7517 73.0088 98.6679 73.8078C97.2532 73.582 95.9212 73.5556 96.3162 71.9366Z" fill="#DFE0E3"/>
<path d="M91.0626 75.4871C91.8346 75.6206 91.7078 75.492 92.2655 75.9404L92.263 76.3068C91.8265 76.9425 91.4714 77 90.7296 77.2603C90.1777 77.4944 90.3221 77.5321 89.839 77.4256L89.8166 77.1225C90.1911 76.257 90.3542 76.1293 91.0626 75.4871Z" fill="#FEFEFE"/>
<path d="M88.1637 70.9914C88.9634 71.1263 88.875 70.9967 89.438 71.4492L89.4212 71.835C89.016 72.4199 88.4926 72.5282 87.8169 72.7734C87.4365 72.9156 87.4228 72.9112 87.0144 72.8394L86.9757 72.489C87.3892 71.6922 87.4948 71.5992 88.1637 70.9914Z" fill="#FEFEFE"/>
<path d="M93.2426 69.4018C93.389 69.3882 93.5358 69.3763 93.6827 69.3663C94.3148 69.3236 95.11 69.2693 95.6038 69.703C95.7463 70.2414 95.7533 70.0111 95.5109 70.589C94.779 70.6154 93.9933 70.7136 93.3411 70.4054C93.0279 69.8963 93.0858 70.1421 93.2426 69.4018Z" fill="#FEFEFE"/>
<path d="M123.259 73.3183C126.615 73.1323 126.345 75.4181 126.263 78.0523C125.921 77.7558 123.518 74.0566 123.259 73.3183Z" fill="#5B6F51"/>
<path d="M68.269 92.4136C70.1659 92.3382 72.7966 92.0989 74.3237 93.3594C78.1379 96.5077 74.6443 102.119 72.6372 104.934C76.1854 102.29 76.3419 101.898 77.2042 97.71C79.6702 94.9004 81.6511 96.4067 83.9458 98.3241C81.2031 101.347 81.064 105.362 77.9876 107.064C75.6066 107.146 74.563 106.765 72.2414 106.143C73.6957 107.245 75.7124 108.402 77.3856 109.171C80.8434 110.76 80.978 112.818 81.6115 116.195C81.9376 117.112 82.937 118.776 83.4561 119.693C83.173 119.799 82.8882 119.901 82.6021 119.999C80.2767 120.793 79.2242 120.659 77.1269 119.634C74.7956 114.891 79.1754 112.7 72.4581 108.287C72.3401 112.682 73.5311 116.252 75.7075 120.042C66.3615 119.87 67.0622 111.813 69.0761 105.409C70.3185 101.459 69.5431 96.336 68.269 92.4136Z" fill="#FEFEFE"/>
<path d="M134.389 92.3946C135.547 92.3281 136.852 92.3982 138.022 92.4306C136.265 96.8413 136.636 101.993 137.163 106.638C137.678 111.173 137.94 115.933 133.708 118.935C131.809 120.282 129.462 120.421 127.251 120.056C121.804 119.292 122.497 114.203 123.323 110.149C123.652 108.532 124.019 106.821 124.338 105.169C124.909 102.316 124.568 100.277 124.133 97.4708L124.29 97.4096C134.475 93.4859 125.552 107.844 127.288 111.613C128.009 113.178 130.887 113.138 131.773 112.572C137.442 108.95 128.962 100.418 131.12 95.4517C131.832 93.8285 133.029 93.0115 134.389 92.3946Z" fill="#FEFEFE"/>
<path d="M86.0409 99.8999C89.8888 99.7836 90.4927 101.739 95.2078 101.517C95.3541 102.648 95.522 104.105 95.4202 105.229C94.9353 110.58 87.3346 104.631 84.829 106.736L84.8314 107.19C85.129 107.9 85.6728 108.21 86.2944 108.672C87.4944 108.835 91.6955 108.982 92.3531 109.478C92.5676 109.804 92.7107 110.347 92.6266 110.727C91.9849 113.626 86.5392 110.698 85.0753 111.827C84.8851 113.868 86.4455 113.936 88.001 114.068C95.2872 113.005 97.0732 112.065 97.2287 120.059C91.466 119.141 85.5618 121.776 82.8134 113.808C81.3024 109.426 80.474 101.749 86.0409 99.8999Z" fill="#FEFEFE"/>
<path d="M122.231 98.5527L122.563 98.6198C123.212 99.8343 123.401 102.313 123.043 103.595C122.809 104.431 120.478 105.258 119.644 105.626C117.813 111.207 118.202 114.341 120.209 119.584C118.244 119.926 114.996 120.649 113.208 119.821C112.366 119.431 112.29 119.01 111.998 118.164C111.791 115.229 113.841 108.567 115.305 106.031C113.866 106.227 112.314 106.358 110.86 106.506C110.342 99.3268 114.375 101.028 119.768 99.6159C120.663 99.3816 121.423 98.9924 122.231 98.5527Z" fill="#FEFEFE"/>
<path d="M99.5301 101.42C103.018 101.2 106.182 101.765 109.704 101.552C109.743 103.528 109.715 104.202 109.175 106.066C107.651 107.351 107.119 107.443 105.236 107.465C105.295 110.318 105.775 113.873 106.263 116.704C106.473 117.925 107.076 118.808 107.229 119.774L107.005 120.005C100.819 121.632 98.7497 119.979 99.9438 113.669C100.36 111.468 100.79 109.559 101.368 107.379C99.7742 107.428 98.1149 107.416 96.5151 107.426C96.3979 104.423 96.4853 102.688 99.5301 101.42Z" fill="#FEFEFE"/>
<path d="M108.787 125.654C109.986 125.597 110.788 125.504 111.967 125.776L112.231 126.033L112.114 126.422L111.63 126.595L112.013 126.979L111.767 127.438L111.958 127.981C111.354 128.628 109.921 128.376 109.04 128.329C108.951 128.929 108.947 129.439 108.489 129.836L108.212 129.703C107.812 128.671 107.557 126.742 108.129 125.785L108.787 125.654Z" fill="#C2C8B9"/>
<path d="M109.04 128.329C108.951 128.929 108.947 129.439 108.489 129.836L108.212 129.703C107.812 128.671 107.557 126.742 108.129 125.785L108.787 125.654L108.97 126.398C108.918 126.677 108.832 127.012 108.859 127.286C108.93 127.618 109.035 127.998 109.04 128.329Z" fill="#DFE0E3"/>
<path d="M108.787 125.654C109.986 125.597 110.788 125.504 111.967 125.776L112.231 126.033L112.114 126.422L111.63 126.595C110.442 126.639 110.117 126.597 108.97 126.398L108.787 125.654Z" fill="#C2C8B9"/>
<path d="M108.97 126.398C110.117 126.597 110.442 126.639 111.63 126.595L112.013 126.979L111.767 127.438C110.704 127.424 109.913 127.38 108.859 127.286C108.832 127.012 108.918 126.677 108.97 126.398Z" fill="#3B4937"/>
<path d="M95.8087 125.588C96.8517 126.155 98.0589 129.119 98.6794 130.372L96.7043 128.92C94.7372 128.812 94.7285 129.102 93.1896 130.436C93.9173 128.839 94.9355 127.131 95.8087 125.588Z" fill="#DFE0E3"/>
<path d="M80.6928 125.775C82.5279 125.61 82.9429 125.469 84.3472 126.638L84.2306 127.116L84.422 126.748L84.4462 126.95C83.7375 127.619 82.5836 126.245 80.9439 126.486C80.1438 127.041 80.1302 127.972 80.4976 128.824C80.9205 129.254 81.5152 129.311 82.1179 129.447C82.8245 129.223 83.524 128.622 84.3124 128.968C83.8724 129.748 82.3959 130.576 81.4488 130.314C79.5397 129.785 79.0047 126.855 80.6928 125.775Z" fill="#DFE0E3"/>
<path d="M121.91 125.766L123.159 125.702C122.986 126.075 122.88 126.364 122.612 126.677L122.69 127.295C122.723 127.618 122.795 128.017 122.704 128.314L122.561 128.627C123.018 129.065 124.63 129.078 125.935 129.531L125.879 129.833C124.349 130.062 123.213 129.96 121.675 129.856C121.62 128.76 121.415 126.668 121.91 125.766Z" fill="#DFE0E3"/>
<path d="M121.91 125.766C122.707 125.317 123.002 123.696 125.001 124.344C125.672 124.944 125.472 124.69 125.746 125.582C125.775 126.209 125.89 126.252 125.572 126.661L124.291 126.716C123.736 126.616 123.179 126.661 122.612 126.677C122.88 126.364 122.986 126.075 123.159 125.702L121.91 125.766Z" fill="#9CA296"/>
<path d="M125.746 125.582C125.775 126.209 125.89 126.252 125.572 126.661L124.291 126.716C123.736 126.616 123.179 126.661 122.612 126.677C122.88 126.364 122.986 126.075 123.159 125.702C123.571 125.624 125.239 125.6 125.746 125.582Z" fill="#C2C8B9"/>
<path d="M122.612 126.677C123.179 126.661 123.736 126.616 124.291 126.716C124.84 126.759 125.278 126.756 125.777 127.003L125.765 127.443L125.664 127.962C125.066 128.355 123.503 128.295 122.704 128.314C122.795 128.017 122.723 127.618 122.69 127.295L122.612 126.677Z" fill="#C2C8B9"/>
<path d="M122.612 126.677C123.179 126.661 123.736 126.616 124.291 126.716C124.84 126.759 125.278 126.756 125.777 127.003L125.765 127.443C124.868 127.328 123.619 127.325 122.69 127.295L122.612 126.677Z" fill="#3B4937"/>
</svg>
