<svg width="2000" height="2000" viewBox="0 0 2000 2000" fill="none" xmlns="http://www.w3.org/2000/svg">
<path d="M496.813 931.302C556.646 930.625 606.632 972.684 608.53 1034.4C609.173 1055.31 599.91 1080.17 584.779 1094.96C573.52 1105.85 558.288 1111.63 542.642 1110.98C537.71 1110.75 532.175 1109.51 527.314 1108.51C522.493 1121.56 513.98 1137.37 497.338 1134.43C470.761 1126.96 464.763 1101.18 442.973 1088.74C424.765 1078.36 388.56 1087.07 385.474 1055.57C385.023 1049.63 386.752 1043.3 387.417 1037.51C392.372 994.404 417.792 955.184 458.79 938.683C471.594 933.53 483.065 932.503 496.813 931.302ZM402.536 1029.16C407.629 1029.88 412.728 1030.58 417.833 1031.22C428.627 1025.3 434.429 1014.22 443.176 1004.76C446.144 1007.15 449.53 1009.76 452.385 1012.22C445.205 1022.8 434.311 1039.67 421.603 1042.99C415.688 1044.54 401.67 1039.99 398.585 1047.24C391.159 1064.66 418.555 1069.23 426.878 1070.51C448.948 1073.91 461.389 1085.13 475.204 1101.04C477.144 1086.76 478.606 1073.97 485.794 1061.22C492.494 1051.61 514.31 1029.14 526.595 1032.94C530.074 1035.98 531.186 1042.85 527.683 1044.25C512.01 1050.49 507.834 1056.04 496.69 1067.29C490.71 1079.38 488.689 1098.78 486.876 1112.53C489.87 1116.77 490.981 1117.98 494.718 1121.61C518.512 1120.27 513.123 1102.11 511.32 1084.98C509.715 1069.72 530.014 1052.56 540.656 1064.44C542.074 1073.72 537.603 1071.87 532.282 1073.93C518.776 1079.14 519.899 1091.39 532.833 1095.63C558.428 1104.58 580.517 1087.59 589.271 1063.94C605.856 1019.12 584.235 970.769 539.946 954.22C510.822 971.633 526.456 977.275 527.979 1004.02C528.847 1019.27 490.483 1035.74 479.143 1034.53C476.289 1032.7 476.06 1032.85 474.758 1029.62C477.564 1015.65 501.778 1019.87 511.484 1008.52C519.316 999.346 509.092 987.607 508.772 976.439C508.378 962.662 515.91 956.458 524.267 947.064C515.659 945.603 506.967 944.688 498.242 944.328C469.694 945.396 448.898 954.121 429.006 975.228C416.592 988.398 404.684 1011.29 402.536 1029.16Z" fill="black"/>
<path d="M556.308 1012.78C570.713 1015.71 575.374 1032.2 572.4 1044.86C571.28 1049.63 568.675 1053.97 566.327 1058.21C567.263 1062.7 568.366 1065.78 567.344 1070.18C565.346 1073.65 563.596 1074.14 559.943 1076.21C544.483 1075.44 558.71 1043.15 560.512 1036.24C561.874 1031.01 551.309 1024.47 551.038 1018.13C552.785 1014.38 552.395 1015.48 556.308 1012.78Z" fill="black"/>
<path d="M479.313 958.729C497.403 959.429 497.22 983.633 495.479 997.109C494.819 1002.23 493.436 1004.23 489.238 1007.1C473.284 1003.98 483.999 995.684 483.453 985.127C483.057 977.461 477.267 970.063 476.198 962.686C476.033 961.545 478.486 959.568 479.313 958.729Z" fill="black"/>
<path d="M538.355 972.404C545.154 972.188 550.155 975.443 554.541 980.303C562.274 988.877 577.056 1002.22 565.415 1012.68L561.603 1011.47C556.101 1006.34 554.954 1000 550.73 995.078C546.174 989.775 536.825 986.23 534.21 978.906C534.957 974.944 535.068 975.902 538.355 972.404Z" fill="black"/>
<path d="M457.217 970.589C461.627 970.137 463.332 970.178 467.11 972.145C472.172 980.85 452.317 992.178 445.774 996.719C441.3 997.578 438.326 995.156 436.851 991.152C438.197 984.404 451.244 975.549 457.217 970.589Z" fill="black"/>
<path d="M485.794 1061.22C492.494 1051.61 514.31 1029.14 526.595 1032.94C530.074 1035.98 531.187 1042.85 527.683 1044.25C512.01 1050.49 507.834 1056.04 496.69 1067.29C492.126 1065.21 490.029 1063.87 485.794 1061.22Z" fill="black"/>
<path d="M497.338 1134.43C470.761 1126.96 464.763 1101.18 442.973 1088.74C424.765 1078.36 388.56 1087.07 385.474 1055.57C385.023 1049.63 386.752 1043.3 387.417 1037.51C392.372 994.404 417.792 955.184 458.79 938.683C471.594 933.53 483.065 932.503 496.813 931.302C497.171 935.849 497.39 939.827 498.242 944.328C469.694 945.396 448.898 954.121 429.006 975.228C416.592 988.398 404.684 1011.29 402.536 1029.16C407.629 1029.88 412.728 1030.58 417.833 1031.22C428.627 1025.3 434.429 1014.22 443.176 1004.76C446.144 1007.15 449.53 1009.76 452.385 1012.22C445.205 1022.8 434.311 1039.67 421.603 1042.99C415.688 1044.54 401.67 1039.99 398.585 1047.24C391.159 1064.66 418.555 1069.23 426.878 1070.51C448.948 1073.91 461.389 1085.13 475.204 1101.04C477.144 1086.76 478.606 1073.97 485.794 1061.22C490.029 1063.87 492.126 1065.21 496.69 1067.29C490.71 1079.38 488.689 1098.78 486.876 1112.53C489.87 1116.77 490.981 1117.98 494.718 1121.61C496.07 1125.5 498.887 1131.13 497.338 1134.43Z" fill="black"/>
<path d="M1553.39 1010.74C1577.14 1007.18 1599.3 1023.47 1602.98 1047.2C1606.67 1070.92 1590.5 1093.16 1566.8 1096.97C1542.91 1100.82 1520.46 1084.49 1516.75 1060.6C1513.03 1036.69 1529.47 1014.33 1553.39 1010.74ZM1566.13 1085.12C1599.25 1071.97 1593.09 1018.13 1553.87 1022.75C1519.61 1034.34 1527.79 1091.09 1566.13 1085.12Z" fill="black"/>
<path d="M1027.32 1010.84C1051.03 1007.63 1072.88 1024.17 1076.21 1047.85C1079.55 1071.54 1063.13 1093.48 1039.45 1096.94C1015.62 1100.42 993.477 1083.85 990.117 1059.99C986.758 1036.12 1003.45 1014.08 1027.32 1010.84ZM1039.59 1085.13C1072.48 1073.19 1067.23 1017.79 1026.23 1022.77C991.494 1036.92 1002.75 1092.17 1039.59 1085.13Z" fill="black"/>
<path d="M1215.52 977.315C1242.09 977.139 1295.49 969.565 1295.52 1011.54C1295.54 1042.46 1269.37 1046.66 1244.03 1046.4L1230.28 1046.67C1229.79 1062.99 1230.08 1079.66 1230.2 1096.02L1215.37 1096.03C1215.41 1056.6 1215 1016.69 1215.52 977.315ZM1230.21 1034.3C1245.78 1034.45 1262.78 1037.06 1274.84 1027.67C1280.3 1020.13 1281.69 1013.46 1279.25 1004.32C1274.02 984.736 1246.5 989.023 1230.24 989.355C1230.06 1003.66 1229.63 1020.02 1230.21 1034.3Z" fill="black"/>
<path d="M1332.88 1010.01C1355.19 1008.34 1365.75 1014.87 1371.98 1036.05L1357.32 1035.86C1356.44 1033.4 1355.5 1030.6 1353.86 1028.41C1347.26 1019.66 1322.19 1018.38 1323.67 1033.75C1324.14 1041.57 1334.83 1045.3 1342.4 1046.27C1365.84 1049.29 1385.06 1064.19 1367.99 1088.05C1362.17 1096.18 1350.82 1097.66 1340.47 1097.99C1320.27 1097.51 1309.3 1088.54 1304.33 1069.47C1309.18 1069.43 1313.98 1069.63 1318.84 1069.79C1325.4 1083.1 1332.32 1087.43 1347.71 1085.45C1351.85 1084.91 1356.53 1080.3 1358.56 1076.92C1365.33 1065.72 1345.94 1060.19 1338.47 1058.54C1319.52 1054.6 1300.07 1044.3 1311.88 1022.1C1316.15 1014.08 1324.64 1011.99 1332.88 1010.01Z" fill="black"/>
<path d="M747.446 1011.94L761.548 1011.97C761.972 1030.43 753.993 1082.18 778.244 1085.56C817.279 1090.99 808.221 1036.46 808.737 1011.97L822.9 1011.91C823.163 1020.09 822.939 1029.35 822.933 1037.6L823.029 1095.85L809.813 1095.8C809.609 1091.25 809.083 1086.34 808.684 1081.77C796.193 1099.71 771.974 1104.22 756.651 1089.28C742.559 1075.54 746.984 1030.69 747.446 1011.94Z" fill="black"/>
<path d="M938.937 1010.05C987.305 1006.66 976.846 1063.3 976.611 1095.95L962.448 1095.85C961.203 1069.64 973.293 1006.84 927.842 1025.24C910.15 1039.34 915.311 1074.53 915.577 1095.91L901.38 1095.79C900.658 1068.88 901.154 1039.02 901.394 1011.95L914.093 1011.93L915.067 1026.33C922.177 1015.64 927.207 1012.97 938.937 1010.05Z" fill="black"/>
<path d="M1115.64 1010.06C1137.32 1008.6 1147.88 1014.96 1153.82 1035.57L1139.74 1035.64C1136.68 1028.02 1134.84 1024.1 1126 1022.31C1117.96 1020.69 1105.12 1023.33 1105.31 1033.8C1106.14 1042.13 1119.61 1045.35 1127.23 1046.96C1150.44 1051.89 1166.96 1065.19 1149.69 1088.61C1144.35 1095.86 1131.9 1097.6 1122.79 1097.99C1106.7 1096.88 1088.5 1088.97 1087.51 1070.52C1090.33 1068.94 1097.24 1069.7 1101.13 1069.74C1103.13 1074.45 1105.21 1078.88 1109.72 1082.02C1116.98 1087.73 1135.19 1088.09 1139.98 1078.96C1147.04 1064.64 1131.8 1060.73 1121.27 1058.35C1102.29 1054.03 1081.37 1045.78 1094.56 1022.69C1099.52 1014 1106.56 1012.19 1115.64 1010.06Z" fill="black"/>
<path d="M1460.89 1009.97C1468.75 1009.38 1475.9 1009.76 1483.26 1012.92C1490.87 1016.18 1507.55 1027.89 1502.91 1037.61C1499.86 1039.47 1495.04 1038.59 1491.23 1038.37C1488.07 1032.41 1483.58 1025.26 1476.55 1023.56C1419.64 1009.83 1433.85 1110.4 1481.99 1081.22C1486.63 1076.93 1487.83 1074.85 1490.66 1069.25L1505.24 1069.37C1497.9 1096.15 1468.06 1105.89 1445.23 1092.68C1435.44 1086.9 1428.44 1077.37 1425.86 1066.3C1419.11 1038.26 1432.5 1015.95 1460.89 1009.97Z" fill="black"/>
<path d="M651.134 977.471C678.729 976.846 708.437 977.383 736.204 977.363L736.073 989.141C724.409 989.082 712.744 989.102 701.081 989.219C699.719 1008.93 700.589 1039.6 700.629 1060.06L700.659 1095.91L686.503 1095.88C685.194 1062.52 686.225 1022.95 686.243 989.131L651.239 989.121L651.134 977.471Z" fill="black"/>
<path d="M882.78 1009.96C885.025 1009.86 885.117 1009.95 887.338 1010.44C889.703 1014 888.748 1020.03 888.604 1024.71C849.931 1025.73 858.013 1051.38 857.259 1080.79C857.131 1085.77 857.372 1090.91 857.434 1095.91C851.709 1095.87 847.37 1097.46 843.145 1094.25L842.844 1090.09L843.022 1011.85L855.939 1012.01C856.335 1017.1 856.454 1022.9 856.667 1028.06C864.818 1015.54 868.877 1013.4 882.78 1009.96Z" fill="black"/>
<path d="M1392.6 1011.86L1406.89 1011.78C1408.08 1037.34 1406.96 1069.71 1407.16 1096.15L1392.38 1095.98C1392.11 1067.94 1392.18 1039.89 1392.6 1011.86Z" fill="black"/>
<path d="M1397.72 973.947C1402.93 972.996 1407.94 976.343 1409.06 981.504C1410.18 986.67 1406.99 991.797 1401.87 993.076C1398.4 993.945 1394.74 992.861 1392.3 990.234C1389.87 987.617 1389.07 983.877 1390.2 980.488C1391.33 977.1 1394.21 974.59 1397.72 973.947Z" fill="black"/>
</svg>
